<svg width="1600" height="1600" viewBox="315.143041523335 184.37836730510503 169.41244860365998 169.41244860365998" xmlns="http://www.w3.org/2000/svg" xmlns:xlink="http://www.w3.org/1999/xlink"><rect x="315.143041523335" y="184.37836730510503" width="169.41244860365998" height="169.41244860365998" rx="16.941244860365998" ry="16.941244860365998" id="background" fill="#ffffff"></rect><g class="icon-group" data-width="141.06113719099" data-height="141.17704050305" data-x="329.31869722967" data-y="198.49607135541"><g id="shape_Rwpgkuko00" ref="shape_Rwpgkuko00" key="shape_Rwpgkuko00" mask="" class=" icon">
<g transform="translate(339.31869722967,208.49607135541) rotate(0,60.530568595496,60.588520251525) scale(1,1)" style="opacity: 1;mix-blend-mode: undefined;" filter="">
<!--普通元素-->
<svg data-noselect="" viewBox="276.4189468301068 94.42919399443318 244.28408040324558 244.51795672937007" width="121.06113719099" height="121.17704050305" ref="svg_canvas" preserveAspectRatio="none" version="1.1" xmlns="http://www.w3.org/2000/svg" style="background: transparent;" class="style-removed" data-parent="shape_Rwpgkuko00">
<defs></defs>
<g id="shape_XTm3JZnOCj" class="icon custom-icon" ref="shape_XTm3JZnOCj" key="shape_XTm3JZnOCj" mask="">
<g transform="translate(277.421833097526,95.49656198130998) rotate(0,121.2067070018427,121.20670700184269) scale(1,1)" style="" filter="" cursor="move" display="inline" opacity="1">
<g style="" display="inline"><svg version="1.1" id="图层_1" xmlns="http://www.w3.org/2000/svg" xmlns:xlink="http://www.w3.org/1999/xlink" x="0px" y="0px" viewBox="0 0 171.9 171.9" style="enable-background:new 0 0 171.9 171.9;" xml:space="preserve" width="242.4134140036854" height="242.41341400368538" class="style-removed" preserveAspectRatio="none" data-parent="shape_XTm3JZnOCj" enable-background="new 0 0 171.9 171.9">
<g>
<path d="M144.8,66.2c-0.6,0.7-1.1,1.4-1.7,2.1c2,5.8,3.1,12,3.1,18.4c0,30.6-24.9,55.6-55.5,55.6
c-6.2,0-12.3-1-17.9-3c-0.8,0.7-1.5,1.3-2.3,2c-4.7,3.9-9.3,7.6-13.7,11c10.1,5.3,21.7,8.2,33.9,8.2c40.7,0,73.7-33,73.7-73.7
c0-12.6-3.1-24.4-8.7-34.7C152.4,56.5,148.7,61.3,144.8,66.2z" fill="#032FE0" stroke-width="0"></path>
<path d="M57.5,131.3c-1.9-1.4-3.6-2.9-5.3-4.5c-5.6-5.4-10.1-11.9-13.1-19.3c-0.4-1-0.8-2-1.2-3.1
c-1.9-5.6-2.9-11.5-2.9-17.7c0-9.6,2.4-18.6,6.7-26.4c2.6-4.7,5.8-9,9.6-12.8c10.1-10.1,23.9-16.3,39.3-16.3c6.4,0,12.4,1.1,18.1,3
c1.3,0.5,2.7,1,4,1.5c7.4,3.2,14,8,19.3,14c1.5,1.7,3,3.5,4.3,5.4c1.4,2,2.6,4,3.7,6.1c4.4-5.4,8.4-10.6,11.9-15.5
c13.4-18.5,20.9-33.4,19.8-40.7c-0.2-1.4-0.7-2.6-1.5-3.4c-5.4-5.4-22.6,2.8-45.4,19.8C114.7,16.1,103,13,90.7,13
c-40.7,0-73.7,33-73.7,73.7c0,12.1,2.9,23.6,8.1,33.6C5.8,145.3-4.1,164.6,1.6,170.3c0.8,0.8,1.9,1.3,3.2,1.5
c7.9,1.3,24.8-7.5,45.6-23.2c4.9-3.7,10-7.8,15.3-12.1C62.8,135,60.1,133.2,57.5,131.3z M152.7,15.1c2.2,2.3-1.4,9.7-9.2,20.3
c-4.2-4.4-9-8.2-14.2-11.4C141.6,16,150.3,12.6,152.7,15.1z M26.4,123c3.1,5.5,6.8,10.5,11.2,15c-13.6,9.7-23.2,14.3-25.7,11.7
C9.4,147,15.6,136.7,26.4,123z" fill="#032FE0" stroke-width="0"></path>
</g>
</svg></g>
</g>
</g>
<g id="shape_xWBenZOb3S" class="icon custom-icon text brand_word_letter" ref="shape_xWBenZOb3S" key="shape_xWBenZOb3S" mask="">
<g transform="translate(-5.387932973266629,-190.81097878468103) rotate(0,409.25,407.75) scale(1,1)" style="" filter="" cursor="move" display="inline" opacity="1">
<g style="" display="inline"><svg xmlns="http://www.w3.org/2000/svg" version="1.1" xmlns:xlink="http://www.w3.org/1999/xlink" width="818.5" height="815.5" viewBox="0 0 818.5 815.5" data-ligature="true" preserveAspectRatio="none" data-parent="shape_xWBenZOb3S"><g data-role="text" data-width="156.99599999999998" data-height="154" transform="translate(330.752, 330.75)"><path d="M4.63 0.66L1.32-4.85L38.92-61.52L27.23-60.53Q22.49-59.87 20.18-58.60Q17.86-57.33 16.87-54.79Q15.88-52.26 15.55-47.08L15.55-47.08L4.30-46.30Q4.52-48.73 5.24-56.83Q5.95-64.94 6.06-71.22L6.06-71.22L7.28-72.43L27.01-71.22L61.08-71.00L63.39-65.82Q45.20-41.56 24.92-9.70L24.92-9.70L39.69-11.14Q45.09-11.80 47.90-15.60Q50.72-19.40 51.82-27.56L51.82-27.56L63.06-28.44Q62.84-27.23 62.35-23.26Q61.85-19.29 61.19-13.01Q60.53-6.73 60.42-1.87L60.42-1.87L58.32 0.33L13.23-0.33L4.63 0.66Z" transform="translate(0 113) " fill="#032FE0" stroke="#032FE0" stroke-width="0.184" data-glyph-w="64.6065" data-glyph-h="150.05025" data-glyph-ascender="112.014" data-glyph-descender="-38.03625" data-kerning="0"></path><path d="M39.36 1.54Q31.20-26.13 24.37-45.75L24.37-45.75L23.15-45.75Q22.93-39.14 22.16-24.92L22.16-24.92L21.50-11.69Q21.50-8.05 25.14-8.05L25.14-8.05Q27.34-8.05 28.44-8.27L28.44-8.27L29.22-7.50L28.00 0.44L23.92 0.33Q18.52 0 13.89 0L13.89 0Q11.58 0 7.55 0.33Q3.53 0.66 2.21 0.88L2.21 0.88L2.98-7.39Q5.95-7.83 7.33-9.43Q8.71-11.03 9.48-15.10L9.48-15.10Q10.36-22.71 12.02-39.47Q13.67-56.23 13.67-57.77L13.67-57.77Q13.67-59.87 13.12-60.86Q12.57-61.85 10.97-62.35Q9.37-62.84 5.95-63.17L5.95-63.17L5.18-63.95L6.28-71.55L11.58-71.33Q17.53-71.00 21.06-71.00L21.06-71.00Q25.80-71.00 30.98-71.33L30.98-71.33L34.95-71.44Q38.37-58.32 43.00-42.56L43.00-42.56L46.53-29.88L47.63-29.88Q49.06-34.73 49.39-35.50L49.39-35.50Q50.60-39.58 54.02-50.66Q57.44-61.74 60.20-71.11L60.20-71.11Q63.61-71.11 65.49-71.00L65.49-71.00L71.77-70.89Q74.86-70.89 76.29-71.00L76.29-71.00Q78.94-71.11 87.10-71.66L87.10-71.66L87.76-71.22L86.99-63.39Q82.36-63.06 80.76-61.85Q79.16-60.64 79.16-57.55L79.16-57.55Q79.16-53.47 79.99-40.30Q80.81-27.12 81.70-18.08L81.70-18.08Q82.25-12.24 83.35-10.20Q84.45-8.16 86.99-8.16L86.99-8.16Q89.08-8.16 90.18-8.38L90.18-8.38L90.74-7.61L89.74 0.33Q83.46 0 78.17 0L78.17 0Q74.97 0 68.80 0.33Q62.62 0.66 60.20 0.88L60.20 0.88L61.30-7.50Q64.39-7.83 65.76-9.10Q67.14-10.36 67.14-12.90L67.14-12.90L66.70-23.26Q65.93-34.95 65.60-45.75L65.60-45.75L64.50-45.75Q56.78-24.03 49.39 0.55L49.39 0.55L39.36 1.54Z" transform="translate(64.6065 113) " fill="#032FE0" stroke="#032FE0" stroke-width="0.184" data-glyph-w="92.3895" data-glyph-h="150.05025" data-glyph-ascender="112.014" data-glyph-descender="-38.03625" data-kerning="0"></path></g></svg></g>
</g>
</g>
</svg>
</g>
</g></g></svg>